# xmcd
#
# Track frame offsets: 
#        150
#        16964
#        31018
#        45076
#        58782
#        72292
#        85478
#        101974
#        117714
#        130758
#        144733
#        161763
#        178405
#        192292
#        206111
#        220944
#        234763
#        249704
#        264773
#        276322
#
# Disc length: 3860 seconds
#
# Revision: 0
# Processed by: cddbd v1.5.2PL0 Copyright (c) Steve Scherf et al.
# Submitted via: ExactAudioCopy v0.99pb5
#
DISCID=2c0f1214
DTITLE=Various Artist - Wenn die Musi spielt - Das Beste 2002
DYEAR=2002
DGENRE=Volksmusik
TTITLE0=Nockalm Quintett - Das Mädchen Atlantis
TTITLE1=Francine Jordi - Verliebt in das Leben
TTITLE2=Oswald Sattler - Ich könnt' ohne Berge nicht leben
TTITLE3=AlpenRebellen - Feiern ist ein Hammer
TTITLE4=Zellberg Buam and Schlitterer Sänger aus dem Zillertal - Berge, 
TTITLE4=die mein Leben erzählen
TTITLE5=Rudi Giovannini - Donna della Raspa
TTITLE6=Leif Hanson - Sandy River
TTITLE7=Stefanie Hertel - Wolkenlos
TTITLE8=Irish-Steirisch - Steirer Reel (Sidl-Al-Daj)
TTITLE9=Bergfeuer - Der Falke
TTITLE10=Klostertaler - Die kleine Kneipe (Radio-Mix)
TTITLE11=Monika Martin - Hast du heute schon gelächelt
TTITLE12=Reiner Kirsten - Was ich wirklich mag
TTITLE13=Die jungen Zillertaler - Gipfelwind im Bluat
TTITLE14=Mara Kayser - Unsichtbare Tränen
TTITLE15=Marc Pircher - Des is Hoamat
TTITLE16=Alpentrio Tirol - Drunt'n im Tal liegt der Nebel
TTITLE17=Stephanie - Ein kleiner Schritt voraus
TTITLE18=Vincent and Fernando - Buona Fortuna
TTITLE19=Kastelruther Spatzen - Va Pensiero - Den Sternen entgegen
EXTD=
EXTT0=
EXTT1=
EXTT2=
EXTT3=
EXTT4=
EXTT5=
EXTT6=
EXTT7=
EXTT8=
EXTT9=
EXTT10=
EXTT11=
EXTT12=
EXTT13=
EXTT14=
EXTT15=
EXTT16=
EXTT17=
EXTT18=
EXTT19=
PLAYORDER=
